<svg width="512" height="512" viewBox="0 0 512 512" fill="none" xmlns="http://www.w3.org/2000/svg">
<g clip-path="url(#clip0_9_398)">
<path d="M477.702 128C494.512 157.114 505.422 189.254 509.81 222.585C514.198 255.916 511.978 289.785 503.277 322.258C494.576 354.731 479.564 385.172 459.098 411.843C438.633 438.514 413.114 460.893 384 477.702C354.886 494.512 322.745 505.422 289.415 509.81C256.084 514.198 222.215 511.978 189.742 503.277C157.269 494.576 126.828 479.564 100.157 459.098C73.4858 438.633 51.1067 413.114 34.2975 384L109.676 340.48C120.77 359.695 135.541 376.538 153.144 390.045C170.747 403.552 190.838 413.46 212.27 419.203C233.702 424.946 256.055 426.411 278.054 423.515C300.052 420.618 321.265 413.418 340.48 402.324C359.696 391.23 376.538 376.459 390.045 358.856C403.552 341.253 413.46 321.162 419.203 299.73C424.946 278.298 426.411 255.945 423.515 233.946C420.618 211.948 413.418 190.735 402.324 171.52L477.702 128Z" fill="#578FCA"/>
<path d="M256 0C300.937 5.35873e-07 345.083 11.8288 384 34.2975C422.917 56.7662 455.234 89.0831 477.702 128L402.324 171.52C387.494 145.835 366.165 124.506 340.48 109.676C314.795 94.847 285.659 87.04 256 87.04L256 0Z" fill="#A1E3F9"/>
<path d="M34.2975 384C11.8288 345.083 1.4284e-06 300.937 0 256C-1.4284e-06 211.063 11.8288 166.917 34.2975 128C56.7662 89.0831 89.0831 56.7662 128 34.2975C166.917 11.8288 211.063 -5.35873e-07 256 0L256 87.04C226.341 87.04 197.205 94.847 171.52 109.676C145.835 124.506 124.506 145.835 109.676 171.52C94.847 197.205 87.04 226.341 87.04 256C87.04 285.659 94.847 314.795 109.676 340.48L34.2975 384Z" fill="#86C8BC"/>
<path d="M191.381 267.771L286.881 122.85L259.839 265.381L191.381 267.771Z" fill="#FFC552" stroke="#FFC552" stroke-width="20" stroke-linejoin="round"/>
<path d="M321.121 243.729L225.62 388.65L252.663 246.119L321.121 243.729Z" fill="#FFC552" stroke="#FFC552" stroke-width="20" stroke-linejoin="round"/>
</g>
<defs>
<clipPath id="clip0_9_398">
<rect width="512" height="512" fill="white"/>
</clipPath>
</defs>
</svg>
